# xmcd CD database file
#
# Track frame offsets:
#	225
#	10676
#	24694
#	35214
#	51547
#	62672
#	79317
#	90018
#	103457
#	120649
#
# Disc length: 1662 seconds
#
# Revision: 0
# Processed by: cddbd v1.4PL0 Copyright (c) Steve Scherf et al.
# Submitted via: CDex 1.50Beta7
#
DISCID=83067b0a
DTITLE=Spirit of the Bar-T-Five - Spirit of the Bar-T-Five
DYEAR=1900
DGENRE=Country
TTITLE0=Happy Rovin Cowboy
TTITLE1=Ghost Riders in the Sky
TTITLE2=Ragtime Cowboy
TTITLE3=Wyoming Town
TTITLE4=Skyball Paint
TTITLE5=How Great Thou Art
TTITLE6=Lone Prarie
TTITLE7=Teton Peaks
TTITLE8=Old Wyoning Sage
TTITLE9=Happy Trails
EXTD=
EXTT0=
EXTT1=
EXTT2=
EXTT3=
EXTT4=
EXTT5=
EXTT6=
EXTT7=
EXTT8=
EXTT9=
PLAYORDER=
